<?xml version="1.0" encoding="UTF-8"?>
<svg width="792px" height="299px" viewBox="0 0 792 299" version="1.1" xmlns="http://www.w3.org/2000/svg" xmlns:xlink="http://www.w3.org/1999/xlink">
    <!-- Generator: Sketch 55.2 (78181) - https://sketchapp.com -->
    <title>v</title>
    <desc>Created with Sketch.</desc>
    <g id="v" stroke="none" stroke-width="1" fill="none" fill-rule="evenodd">
        <rect id="Rectangle" stroke="#5D2AEA" stroke-width="6" x="4" y="101" width="181" height="137" rx="6"></rect>
        <rect id="Rectangle-Copy" fill="#5D2AEA" x="281" y="91" width="161" height="161" rx="6"></rect>
        <rect id="Rectangle-Copy-5" fill="#5D2AEA" x="309" y="1" width="105" height="42" rx="6"></rect>
        <text id="🐶" font-family="AppleColorEmoji, Apple Color Emoji" font-size="90" font-weight="normal" fill="#838383">
            <tspan x="316.5" y="205">🐶</tspan>
        </text>
        <text id="Your-website/app" font-family="AvenirNext-DemiBold, Avenir Next" font-size="20" font-weight="500" fill="#5D2AEA">
            <tspan x="70.15" y="163">Your</tspan>
            <tspan x="32.56" y="190">website/app</tspan>
        </text>
        <text id="Other-services" font-family="AvenirNext-DemiBold, Avenir Next" font-size="20" font-weight="500" line-spacing="21" fill="#5D2AEA">
            <tspan x="585.63" y="264.880127">Other</tspan>
            <tspan x="576.05" y="285.880127">services</tspan>
        </text>
        <text id="Custom-services" font-family="AvenirNext-DemiBold, Avenir Next" font-size="20" font-weight="500" line-spacing="21" fill="#5D2AEA">
            <tspan x="687.62" y="120.880127">Custom</tspan>
            <tspan x="686.55" y="141.880127">services</tspan>
        </text>
        <path id="2" d="M661.839996,135.630482 L541.496207,171.868796 L540.631204,168.996207 L660.974993,132.757893 L658.668317,125.097655 L679.60056,128.715833 L664.146672,143.290721 L661.839996,135.630482 Z" fill="#5D2AEA" fill-rule="nonzero"></path>
        <path id="3" d="M661.018033,208.031861 L541.620499,170.671105 L542.516395,167.807999 L661.913929,205.168756 L664.302984,197.533809 L679.598979,212.274316 L658.628977,215.666807 L661.018033,208.031861 Z" fill="#5D2AEA" fill-rule="nonzero"></path>
        <path id="1" d="M591.783967,112.586031 L542.186765,171.800583 L539.886917,169.874265 L589.484119,110.659714 L583.351191,105.522867 L602.834054,97.0571682 L597.916895,117.722878 L591.783967,112.586031 Z" fill="#5D2AEA" fill-rule="nonzero"></path>
        <text id="Cache" font-family="AvenirNext-DemiBold, Avenir Next" font-size="20" font-weight="500" fill="#FFFFFF">
            <tspan x="333.26" y="30">Cache</tspan>
        </text>
        <path d="M651.039275,37.2134197 C651.87036,53.1047044 643.79521,68.1334935 630.106547,76.1716491 C616.417884,84.2098047 599.403045,83.9141736 586,75.4053022 C593.597117,75.9064523 601.111071,73.5748926 607.099698,68.8581224 C601.276362,68.1619312 596.369105,64.1722587 594.483384,58.6008739 C596.735332,58.9639235 599.039805,58.8147579 601.226586,58.1643952 C594.253462,56.8479873 589.110882,50.8738022 588.827795,43.7605995 C590.762182,44.5386839 592.83518,44.9100818 594.918429,44.8517962 C588.920326,40.1963314 587.250994,31.8221722 591.003021,25.2102566 C598.552037,34.5635882 609.695488,40.2726085 621.673716,40.9234883 C619.622266,34.2350576 622.581813,27.0259551 628.733261,23.7272798 C634.884709,20.4286044 642.503343,21.9652239 646.906344,27.3926499 C650.239119,26.7925418 653.419031,25.5312252 656.259819,23.6825813 C655.17757,27.2242633 652.757396,30.2007027 649.516616,31.9756758 C652.462055,31.6765955 655.332897,30.8642031 658,29.5750431 C656.721365,32.9098183 654.235522,35.6376664 651.039275,37.2134197 L651.039275,37.2134197 Z" id="Path" fill="#5D2AEA" fill-rule="nonzero"></path>
        <path id="6" d="M357,73.7371575 L357,98.9404762 L354,98.9404762 L354,73.7371575 L346,73.7371575 L355.5,54.7371575 L365,73.7371575 L357,73.7371575 Z" fill="#5D2AEA" fill-rule="nonzero"></path>
        <path id="7" d="M252.739928,171 L183.5,171 L183.5,168 L252.739928,168 L252.739928,160 L271.739928,169.5 L252.739928,179 L252.739928,171 Z" fill="#5D2AEA" fill-rule="nonzero"></path>
        <path d="M542.877363,169.6875 L442,169.6875" id="Line" stroke="#5D2AEA" stroke-width="3" stroke-linecap="square"></path>
        <path d="M719,197 C702.43,197 689,210.4325 689,227 C689,243.5675 702.43,257 719,257 C735.57,257 749,243.5675 749,227 C749,210.4325 735.57,197 719,197 Z M743.7125,225.6025 C737.275,224.5475 731.355,224.49 725.955,225.42 C725.345,224.0125 724.7125,222.6075 724.0375,221.22 C729.8125,218.72 734.45,215.325 737.9075,211.015 C741.2825,215 743.4,220.0625 743.7125,225.6025 Z M734.1075,207.3975 C731.095,211.2825 726.9375,214.355 721.6425,216.5975 C719.1025,211.945 716.1975,207.4075 712.9225,203.0025 C714.87,202.51 716.9,202.2175 719,202.2175 C724.6875,202.2175 729.92,204.165 734.1075,207.3975 Z M707.8175,204.915 C711.145,209.27 714.095,213.76 716.66,218.3675 C710.585,220.155 703.3325,221.0725 694.95,221.13 C696.68,214.0425 701.4525,208.1475 707.8175,204.915 L707.8175,204.915 Z M694.2175,227 L694.25,226.36 C703.8725,226.3475 712.1725,225.24 719.125,223.055 C719.7075,224.2425 720.265,225.435 720.8,226.635 C712.35,229.2775 705.3875,234.69 699.9575,242.835 C696.3775,238.5375 694.2175,233.0175 694.2175,227 L694.2175,227 Z M703.79,246.525 C708.7125,238.805 714.995,233.78 722.785,231.4575 C725.105,237.5075 726.8075,243.7325 727.8925,250.1075 C719.52,253.335 710.51,251.7725 703.79,246.525 Z M732.755,247.6 C731.66,241.7175 730.055,235.9675 727.955,230.3575 C732.645,229.695 737.805,229.8675 743.4525,230.8475 C742.36,237.8125 738.3825,243.8275 732.755,247.6 Z" id="Shape" fill="#5D2AEA" fill-rule="nonzero"></path>
        <path id="Line-2" d="M368,54.9124312 L368,39.6348489 L371,39.6348489 L371,54.9124312 L379,54.9124312 L369.5,73.9124312 L360,54.9124312 L368,54.9124312 Z" fill="#5D2AEA" fill-rule="nonzero"></path>
        <path id="Line-3" d="M589.596295,230.171133 L539.888571,169.795385 L542.204615,167.888571 L591.912339,228.264319 L598.088458,223.179483 L602.830803,243.886007 L583.420177,235.255969 L589.596295,230.171133 Z" fill="#5D2AEA" fill-rule="nonzero"></path>
    </g>
</svg>